<?xml version="1.0" standalone="no"?>
<!DOCTYPE svg PUBLIC "-//W3C//DTD SVG 20010904//EN"
 "http://www.w3.org/TR/2001/REC-SVG-20010904/DTD/svg10.dtd">
<svg version="1.0" xmlns="http://www.w3.org/2000/svg"
 width="729.000000pt" height="1280.000000pt" viewBox="0 0 729.000000 1280.000000"
 preserveAspectRatio="xMidYMid meet">
<metadata>
Created by potrace 1.15, written by Peter Selinger 2001-2017
</metadata>
<g transform="translate(0.000000,1280.000000) scale(0.100000,-0.100000)"
fill="#000000" stroke="none">
<path d="M3487 12790 c-65 -5 -120 -9 -122 -11 -2 -2 108 -5 243 -5 436 -2
777 -42 1147 -135 1380 -345 2232 -1407 2425 -3025 27 -225 38 -762 21 -1019
-16 -232 -46 -496 -82 -704 -16 -96 -28 -175 -26 -177 5 -5 61 240 92 396 73
375 100 669 99 1070 0 338 -12 489 -60 770 -166 988 -658 1789 -1404 2287
-482 322 -1052 506 -1715 553 -157 11 -439 11 -618 0z"/>
<path d="M2143 12505 c-647 -199 -1143 -540 -1514 -1040 -172 -232 -325 -525
-421 -805 -93 -272 -156 -570 -190 -890 -17 -160 -17 -674 0 -840 40 -397 113
-762 222 -1120 73 -235 77 -259 94 -476 29 -368 55 -559 111 -804 78 -339 182
-576 283 -645 56 -38 118 -35 176 10 45 34 46 34 50 12 3 -12 25 -105 50 -207
90 -368 213 -699 392 -1060 158 -318 284 -525 480 -790 l92 -125 11 -110 c124
-1214 46 -2168 -220 -2698 -89 -177 -234 -348 -369 -435 -78 -51 -191 -96
-280 -112 -105 -20 -114 -31 -20 -24 140 10 217 30 328 85 389 195 621 722
682 1554 13 177 13 606 0 795 -19 280 -56 592 -99 823 -9 53 -17 97 -16 97 1
0 50 -55 108 -122 463 -538 950 -856 1440 -939 104 -18 148 -20 297 -16 261 8
426 50 675 171 388 188 778 544 1107 1008 34 48 64 86 66 84 2 -2 -10 -73 -27
-157 -36 -184 -65 -389 -87 -599 -21 -211 -30 -816 -15 -1036 65 -925 336
-1596 777 -1927 75 -57 229 -147 249 -147 5 0 -32 27 -81 59 -490 323 -775
984 -854 1981 -18 227 -23 678 -11 940 22 461 42 738 63 860 13 79 22 97 113
230 224 326 467 892 594 1381 127 488 185 995 165 1442 l-9 182 -7 -275 c-9
-376 -40 -642 -114 -986 -124 -581 -356 -1157 -666 -1656 -178 -288 -366 -525
-598 -759 -251 -252 -466 -413 -725 -542 -556 -276 -1042 -235 -1605 137 -880
581 -1685 1894 -1914 3121 -13 72 -25 118 -25 103 -1 -26 34 -247 45 -280 8
-25 -66 -71 -115 -71 -151 0 -250 283 -365 1038 -56 373 -60 411 -61 610 0
231 12 285 80 352 23 24 47 43 53 43 6 0 22 -33 36 -72 l26 -73 -4 78 -4 77
46 1 c36 0 42 3 27 9 -11 5 -32 9 -46 9 -26 1 -27 4 -33 74 -24 268 -52 1169
-43 1342 11 193 88 501 212 850 216 606 516 1110 890 1494 179 183 324 298
491 386 84 45 90 50 36 31 -58 -21 -192 -89 -261 -133 -237 -152 -491 -409
-717 -728 -272 -382 -522 -900 -619 -1280 l-15 -60 6 130 c3 72 12 213 20 314
8 101 13 186 10 188 -10 10 -66 -306 -95 -537 -54 -433 -75 -801 -68 -1190 8
-401 36 -634 103 -862 4 -13 -5 -22 -35 -34 -79 -32 -129 -112 -156 -256 -8
-45 -17 -83 -19 -85 -6 -6 -114 444 -145 607 -164 847 -139 1657 71 2320 222
700 655 1263 1273 1651 185 116 451 245 670 325 118 43 90 42 -52 -1z"/>
<path d="M4501 12046 c3 -3 54 -10 114 -16 1142 -112 1995 -742 2414 -1780 47
-117 36 -54 -20 113 -176 528 -508 965 -969 1273 -403 269 -896 414 -1408 414
-74 0 -133 -2 -131 -4z"/>
<path d="M5340 11148 c412 -89 762 -412 1020 -943 190 -390 281 -755 314
-1253 l12 -197 10 80 c13 117 10 495 -5 600 -77 532 -295 1006 -620 1348 -89
93 -207 190 -299 247 -126 77 -302 131 -419 129 l-58 -1 45 -10z"/>
<path d="M5719 10478 c70 -41 174 -138 221 -208 159 -234 232 -530 310 -1255
94 -873 177 -1267 340 -1610 53 -111 95 -175 60 -92 -128 308 -190 623 -275
1397 -25 228 -57 496 -71 595 -97 695 -267 1047 -570 1181 -74 33 -80 30 -15
-8z"/>
<path d="M3780 10344 c-163 -166 -326 -282 -1020 -729 -601 -387 -939 -644
-1236 -940 -317 -316 -524 -630 -633 -960 -46 -138 -49 -133 -21 32 167 984
807 2057 1493 2502 106 69 83 66 -48 -6 -346 -190 -732 -593 -1001 -1046 -257
-431 -420 -903 -488 -1407 -21 -158 -36 -439 -28 -530 l7 -75 7 80 c27 344
206 716 518 1080 107 124 359 368 515 498 171 143 497 387 770 577 520 362
586 408 700 493 187 140 312 246 410 348 79 82 143 159 133 159 -2 0 -37 -34
-78 -76z"/>
<path d="M5446 10329 c-77 -279 -280 -529 -576 -712 -96 -59 -311 -161 -465
-222 -66 -26 -347 -123 -625 -215 -278 -92 -579 -195 -670 -230 -753 -286
-1279 -613 -1725 -1071 -191 -196 -330 -377 -470 -609 -88 -146 -87 -145 34
25 281 393 605 706 1016 980 433 288 828 470 1605 739 868 301 1087 393 1348
566 213 142 361 303 453 495 45 94 105 283 97 307 -2 6 -12 -18 -22 -53z"/>
<path d="M6727 8270 c-28 -71 -49 -445 -37 -672 10 -181 27 -325 40 -333 22
-14 53 419 44 613 l-7 134 49 -7 c63 -9 94 -30 122 -87 37 -74 47 -288 33
-687 -24 -705 -84 -1052 -200 -1168 -42 -43 -94 -45 -160 -7 l-46 27 29 -31
c43 -46 105 -67 150 -52 105 34 199 218 251 491 58 310 78 834 44 1189 -24
250 -80 340 -210 340 -63 0 -68 6 -69 80 -2 57 -26 186 -33 170z"/>
<path d="M5131 7865 c-35 -8 -94 -24 -130 -36 -161 -53 -510 -220 -597 -286
-65 -49 -127 -103 -123 -107 11 -10 225 70 352 132 193 95 340 157 446 190 76
23 102 26 221 26 87 -1 188 -9 285 -23 159 -24 397 -32 428 -15 14 8 -5 17
-89 43 -211 66 -653 108 -793 76z"/>
<path d="M1810 7755 c-145 -21 -500 -103 -500 -116 0 -8 105 -19 180 -19 31 0
133 11 226 25 389 57 545 30 940 -165 162 -80 366 -161 403 -160 8 1 -49 50
-124 107 -122 93 -548 284 -710 318 -107 23 -297 28 -415 10z"/>
<path d="M4904 7290 c-56 -11 -149 -60 -202 -105 -49 -42 -102 -128 -102 -164
l0 -24 23 19 c12 11 68 53 125 93 121 85 222 168 222 181 0 11 -8 11 -66 0z"/>
<path d="M2579 7231 c51 -48 314 -241 327 -241 14 0 -9 58 -42 106 -62 92
-182 168 -284 179 l-55 6 54 -50z"/>
<path d="M5220 7259 c-147 -18 -289 -75 -407 -164 -60 -44 -115 -103 -179
-190 -25 -34 -17 -29 54 32 124 108 246 181 342 207 22 6 23 5 9 -6 -59 -48
-77 -154 -39 -228 54 -106 223 -120 298 -25 71 90 40 230 -59 274 l-40 18 32
7 c68 13 96 8 125 -26 64 -77 84 -190 45 -266 -40 -79 -134 -141 -251 -167
l-35 -8 30 -13 c115 -50 278 27 341 161 46 98 18 222 -65 282 -56 42 -57 43
-15 37 86 -12 194 -38 288 -71 123 -43 276 -119 276 -137 0 -7 -20 -32 -45
-55 -95 -88 -265 -180 -533 -291 -83 -35 -151 -65 -149 -66 6 -7 240 57 342
94 154 55 235 93 330 156 82 55 150 129 162 175 8 34 -43 78 -161 135 -220
108 -491 160 -696 135z"/>
<path d="M1931 7229 c-148 -32 -315 -102 -458 -192 -34 -22 -43 -33 -43 -55 0
-86 179 -222 422 -319 101 -41 357 -113 396 -113 9 1 -44 26 -118 56 -182 75
-304 133 -405 194 -81 49 -195 143 -195 161 0 14 124 78 232 119 98 37 223 69
328 84 47 7 47 6 -11 -37 -21 -14 -47 -47 -59 -72 -19 -39 -22 -58 -18 -120 7
-112 62 -191 162 -235 55 -25 143 -29 191 -9 l30 12 -45 8 c-94 18 -198 88
-237 162 -11 21 -17 55 -17 97 0 68 17 114 66 173 22 26 27 28 88 25 48 -2 60
-6 45 -12 -75 -34 -115 -95 -115 -176 0 -82 46 -144 126 -170 164 -54 302 147
194 281 -31 39 -32 41 -9 35 97 -28 262 -132 362 -229 26 -25 47 -43 47 -40 0
15 -89 120 -151 176 -102 94 -208 152 -355 193 -97 27 -336 29 -453 3z"/>
<path d="M6541 7154 c0 -11 3 -14 6 -6 3 7 2 16 -1 19 -3 4 -6 -2 -5 -13z"/>
<path d="M892 6295 c0 -16 2 -22 5 -12 2 9 2 23 0 30 -3 6 -5 -1 -5 -18z"/>
<path d="M3258 5364 c-22 -22 1 -92 44 -130 61 -56 140 -69 216 -34 36 16 42
23 42 49 0 25 -8 35 -47 57 -67 40 -236 78 -255 58z"/>
<path d="M4043 5350 c-111 -29 -169 -67 -161 -106 9 -47 118 -79 191 -55 41
14 113 88 123 126 14 57 -30 67 -153 35z"/>
<path d="M3960 4586 c-36 -14 -96 -36 -133 -50 -89 -34 -120 -33 -219 8 -108
45 -193 60 -288 51 -144 -12 -238 -56 -415 -193 -38 -30 -92 -65 -120 -78 -44
-21 -46 -24 -22 -24 16 0 99 37 191 84 299 155 394 167 609 79 79 -33 103 -38
168 -38 70 0 83 4 179 49 95 46 110 50 191 54 62 3 109 -1 158 -13 65 -16 254
-102 381 -175 51 -29 53 -29 25 -5 -51 44 -234 164 -304 199 -156 79 -283 95
-401 52z"/>
<path d="M3505 4290 c-194 -9 -415 -30 -415 -40 0 -9 43 -16 193 -31 236 -23
1158 1 1190 31 12 11 -198 30 -443 40 -236 10 -288 10 -525 0z"/>
<path d="M4390 4060 c-258 -171 -1008 -198 -1235 -45 -46 32 -45 15 4 -34 195
-195 845 -208 1146 -23 45 27 112 88 126 115 13 22 12 22 -41 -13z"/>
</g>
</svg>
